<svg xmlns="http://www.w3.org/2000/svg" width="256" height="256"><path fill="#1976D2" fill-opacity=".016" fill-rule="evenodd" d="M0 128.004v128.004l128.25-.254 128.25-.254.254-127.75L257.008 0H0zm.485.496c0 70.4.119 99.053.265 63.672s.146-92.98 0-128S.485 58.1.485 128.5"/><path fill="#1976D2" fill-opacity=".295" fill-rule="evenodd" d="M109 1.538c-32.928 5.206-61.643 22.258-82.582 49.04C15.534 64.499 8.111 80.282 3.331 99.661 1.007 109.086.648 112.653.579 127c-.059 12.421.371 18.601 1.742 25 5.503 25.696 16.406 46.482 33.867 64.569 42.965 44.504 110.208 52.046 162.031 18.174 12.242-8.002 28.522-24.282 36.524-36.524 10.45-15.988 18.377-37.279 19.906-53.469.351-3.713 1.024-6.75 1.495-6.75s.856-4.752.856-10.559-.387-10.32-.859-10.028-1.145-2.494-1.494-6.191c-1.364-14.432-8.32-34.344-17.371-49.722-5.07-8.613-7.501-11.653-18.174-22.722C190.862 9.489 148.766-4.75 109 1.538m19.19 56.212c.288 3.488.714 3.942 6.096 6.507 5.524 2.632 5.925 2.685 8.857 1.169 3.037-1.571 3.048-1.604.982-3.051C140.504 59.839 129.85 54 128.844 54c-.531 0-.825 1.688-.654 3.75m44.623 14.933c.721.289 1.584.253 1.916-.079s-.258-.568-1.312-.525c-1.165.048-1.402.285-.604.604M.374 128.5c.002 6.05.167 8.396.366 5.213.199-3.182.197-8.132-.004-11-.201-2.867-.364-.263-.362 5.787"/><path fill="#1976D2" fill-opacity=".322" fill-rule="evenodd" d="M130 1.878c0 .975-33.871 16.692-55.272 25.648-7.575 3.17-13.615 5.921-13.422 6.113.497.497 27.943-10.982 49.123-20.544C120.29 8.643 128.512 5 128.699 5s-1.019 2.362-2.683 5.25-7.617 13.687-13.231 24S101.971 53 101.23 53c-.788 0-1.055-.519-.642-1.25.564-1 .436-1-.641 0-.741.687-2.327 1.25-3.525 1.25s-2.795.749-3.55 1.664c-1.244 1.508-1.162 1.552.878.465 1.237-.66 2.25-.809 2.25-.331s.675.869 1.5.869 1.5-.428 1.5-.95c0-.523.889-.718 1.977-.433 1.424.372 2.351-.224 3.319-2.134 1.87-3.69 21.414-38.627 23.768-42.488l1.929-3.162.003 18.25c.003 12.635-.335 18.25-1.099 18.25-.606 0-4.943 1.8-9.638 4s-9.711 4.032-11.147 4.07c-2.206.06-2.316.187-.711.816 1.648.647 1.448.936-1.5 2.168-1.871.782-3.739 1.315-4.151 1.184s-.75.245-.75.835c0 .591-.765.926-1.7.746-1.796-.346-5.503 2.824-7.358 6.289-.607 1.135-1.357 1.811-1.666 1.502s.066-1.321.831-2.248c1.199-1.452 1.188-1.619-.079-1.2-.81.267-1.722 1.542-2.027 2.832-.569 2.412-5.264 4.779-9.78 4.93C77.968 68.966 74.269 70.35 71 72s-6.609 3-7.423 3c-1.978 0-7.05 7.509-8.627 12.773C54.253 90.098 53.351 92 52.945 92 52.156 92 46 85.278 46 84.416c0-.284.669-1.808 1.486-3.388 1.058-2.047 3.084-3.472 7.037-4.951 3.054-1.142 6.323-2.087 7.265-2.099s2.837-.966 4.212-2.119l2.5-2.096-2.503 1.48c-2.385 1.41-3.398 1.042-21.5-7.8L25.5 54.164l16-.359 16-.36-16.833-.222c-12.937-.171-16.739.061-16.425 1.004.226.676 8.528 5.063 18.45 9.75l18.04 8.523-5.116 1.878c-2.814 1.033-5.791 2.427-6.616 3.098s-2.288 1.499-3.25 1.841c-3.205 1.136-1.718 6.473 3.116 11.183 3.497 3.408 3.734 5.124 1.665 12.068-1.624 5.451-5.066 8.649-6.752 6.274-.667-.94-.786-.597-.398 1.143.418 1.872-.241 3.354-2.663 5.998l-3.218 3.513 3.119-2.81c3.487-3.141 4.316-2.462 4.451 3.646.059 2.627.209 2.827.882 1.168.758-1.867.843-1.834 1.292.5.264 1.375.28.475.036-2s-.858-4.927-1.362-5.45c-1.193-1.235-1.195-3.84-.003-3.103.503.311 1.092.033 1.309-.618 2.058-6.174 2.984 16.458 1.275 31.178-.656 5.65-.922 6.143-4.023 7.438-4.189 1.751-6.893 5.816-6.77 10.177.053 1.858-.267 3.378-.71 3.378-1.381 0-6.135 8.966-5.392 10.169.402.65.264.868-.32.506-.564-.348-2.686 2.057-4.716 5.346-2.03 3.288-3.846 5.979-4.036 5.979s-.137-1.012.118-2.25c.295-1.433-.204-.978-1.372 1.25-3.011 5.741-2.639 7.464 2.522 11.685 2.566 2.098 8.636 7.308 13.488 11.576s11.16 8.94 14.017 10.381 5.42 2.899 5.695 3.239c.275.341 1.4.772 2.5.959 4.057.691 62.5 30.4 62.5 31.772 0 .763.675 1.388 1.5 1.388s1.503-.562 1.507-1.25c.006-1.272 14.998-10.329 20.481-12.373 11.974-4.463 49.085-21.229 47.222-21.333-.434-.024-2.459.803-4.5 1.837-2.04 1.035-14.06 6.242-26.71 11.572s-25.144 11.008-27.765 12.619c-2.621 1.61-4.98 2.928-5.243 2.928-.264 0 1.54-3.15 4.008-7s4.297-7 4.065-7-2.928 3.227-5.993 7.171L125 249.342v-17.124c0-11.045.42-18.045 1.182-19.718 1.133-2.488 8.747-8.904 9.579-8.073.22.221-.101 1.34-.715 2.487-.742 1.386-.769 2.086-.081 2.086.569 0 1.08.787 1.135 1.75s.967-.938 2.028-4.224c2.028-6.285 4.809-9.897 11.3-14.675 2.965-2.183 4.126-2.58 4.735-1.621.616.97.813.915.832-.23.03-1.703 14.209-10.15 16.203-9.653.716.179.943.129.503-.11-1.174-.641 34.486-21.263 36.277-20.978.847.134 1.392-.372 1.228-1.141-.162-.76-.699-4.36-1.193-8s-1.42-9.318-2.056-12.618-1.331-7.125-1.542-8.5-1.283-6.55-2.382-11.5c-2.03-9.14-2.665-15.594-1.033-10.5.44 1.375.845 1.911.9 1.191s.438-1.102.85-.85.752-1.633.755-4.191c.004-2.896 1.298-7.988 3.432-13.5 3.778-9.758 3.649-10.804-1.718-13.948-3.728-2.185-11.802-3.566-15.219-2.605-1.987.559-1.577.733 2 .847 8.733.279 16 4.254 16 8.753 0 1.312-1.35 5.274-3 8.803s-3.029 7.898-3.063 9.708c-.059 3.067-.128 3.132-1.002.95-.517-1.289-.641-2.864-.277-3.5.365-.637.288-.818-.17-.403-.457.416-2.522-4.276-4.588-10.425l-3.757-11.181-5.83-2.111c-5.338-1.933-14.44-6.944-29.605-16.296-4.246-2.619-5.447-3.82-4.5-4.501.911-.656.745-.752-.566-.325-1.189.386-5.268-1.24-11.334-4.52l-9.476-5.123.708-16.637c.39-9.15.821-16.767.959-16.928.298-.346 5.481 9.411 16.547 31.149 4.44 8.722 8.263 15.668 8.494 15.436.385-.385-17.351-36.133-23.215-46.793-1.787-3.249-1.93-3.826-.514-2.075 1.078 1.333 2.8 2.541 3.825 2.684 1.747.243 1.738.152-.136-1.46-3.673-3.157-2.707-4.168 2.014-2.108 2.467 1.078 6.575 2.87 9.128 3.984s4.811 1.856 5.018 1.648c.207-.207-4.469-2.58-10.392-5.273s-10.918-5.234-11.101-5.648C131.704.707 130 .806 130 1.878m21 25.377c0 .275.635 1.027 1.411 1.671 1.087.902 1.583.873 2.16-.127.412-.715.381-.965-.069-.558-.45.408-1.422.24-2.16-.372-.738-.613-1.342-.889-1.342-.614m-97.447 2.66a1.116 1.116 0 0 0 .362 1.532c.521.322 1.21.159 1.532-.362a1.116 1.116 0 0 0-.362-1.532 1.116 1.116 0 0 0-1.532.362M155.872 31.5c.54 1.1 1.714 2.9 2.61 4l1.628 2-.982-2c-.54-1.1-1.714-2.9-2.61-4l-1.628-2zM152 33c.589 1.1 1.295 2 1.57 2s.019-.9-.57-2-1.295-2-1.57-2-.019.9.57 2M42.75 42.059C34.087 46.433 27 50.237 27 50.512c0 .447 31.9-15.18 32.917-16.125 1.638-1.522-3.558.8-17.167 7.672m150.646-7.243c.239.376 8.151 4.509 17.582 9.184l17.149 8.5-9.814.556-9.813.557 9.662.193c8.451.17 9.63.406 9.412 1.89-.137.932-.884 1.867-1.661 2.076-1.105.297-1.086.149.087-.681.825-.583 1.055-1.067.511-1.076-1.285-.02-32.599 15.23-32.165 15.664.182.182 6.933-2.821 15.003-6.674S224.311 58 224.665 58s-.17.9-1.165 2c-1.315 1.453-1.441 2-.459 2 .758 0-.161 1.627-2.095 3.708l-3.446 3.708 4.153-3.458c2.284-1.902 4.084-4.031 4-4.731s1.365-2.243 3.22-3.427l3.374-2.153-.758 2.427c-.416 1.334-2.039 5.771-3.606 9.859-3.407 8.89-3.015 10.683.566 2.587 3.934-8.896 5.002-13.194 3.895-15.675-.667-1.495-6.945-5.056-20.175-11.442-10.563-5.1-19.011-8.964-18.773-8.587M163 43.941c0 .518.445 1.216.989 1.552.566.35.734-.051.393-.941-.665-1.732-1.382-2.049-1.382-.611m-31 2.518c0 .275 1.8 1.419 4 2.541s4 1.816 4 1.541-1.8-1.419-4-2.541-4-1.816-4-1.541m34.511 2.918c.946 1.443 1.908 2.623 2.139 2.623.724 0-1.605-3.854-2.759-4.567-.604-.374-.325.501.62 1.944M113 52.842c-7.282 2.847-12.979 5.61-12.99 6.301-.005.354.735.929 1.646 1.279 2.769 1.062 10.792-2.257 14.366-5.944 3.798-3.919 3.387-4.141-3.022-1.636m-51.25.82c.688.278 1.813.278 2.5 0 .688-.277.125-.504-1.25-.504s-1.937.227-1.25.504m17 0c.688.278 1.813.278 2.5 0 .688-.277.125-.504-1.25-.504s-1.937.227-1.25.504M128 57.316c0 4.284.044 4.337 5.93 7.15 5.361 2.563 6.228 2.711 9.038 1.547 1.709-.708 2.947-1.788 2.751-2.4-.335-1.046-15.348-10.368-16.969-10.535-.412-.043-.75 1.864-.75 4.238m35.442-3.41c.308.498 1.46.671 2.559.383 2.752-.719 2.504-1.289-.56-1.289-1.407 0-2.307.408-1.999.906m5.558-.528c0 .207.685.946 1.523 1.641 1.273 1.057 1.42.995.893-.378-.538-1.401-2.416-2.384-2.416-1.263m3.813.305c.721.289 1.584.253 1.916-.079s-.258-.568-1.312-.525c-1.165.048-1.402.285-.604.604M121 56.245c-1.925 1.143-5.031 3.206-6.903 4.584l-3.402 2.506 2.263 1.832c1.245 1.008 2.776 1.826 3.403 1.818.768-.011.734-.273-.103-.805q-1.24-.79 3.5-3.02c4.599-2.164 4.667-2.168 2.242-.135l-2.5 2.095 3.25-1.585c2.855-1.394 3.25-2.069 3.25-5.561 0-4.513-.198-4.582-5-1.729M94 57c0 .55.45 1 1 1s1-.45 1-1-.45-1-1-1-1 .45-1 1m11 1c-1.925 1.054-3.14 1.935-2.7 1.958 1.059.056 6.7-2.877 6.7-3.484 0-.654-.059-.632-4 1.526m54.433-1.109c.713 1.154 4.567 3.483 4.567 2.759 0-.231-1.18-1.193-2.623-2.139s-2.318-1.224-1.944-.62M21.201 58.549c-1.068 1.21-1.017 3.647.287 13.665.872 6.706 1.794 12.401 2.049 12.656.725.725.553-1.562-1.001-13.331-.796-6.029-1.272-11.136-1.058-11.35.824-.825 2.519 1.006 1.884 2.035-.421.68-.201.794.591.305.939-.58 1.089-.172.589 1.596-.447 1.576-.364 1.93.246 1.053.669-.963 1.837.448 4.294 5.188 3.401 6.558 5.045 8.353 2.761 3.013-1.133-2.651-8.896-16.428-9.207-16.341-.075.021-.721.701-1.435 1.511M70.5 58c-.34.55-.141 1 .441 1S72 58.55 72 58s-.198-1-.441-1-.719.45-1.059 1m104.893 3.855c1.96 2.67 3.31 5.108 3 5.419s.487 1.075 1.771 1.7c2.142 1.042 2.185 1.015.519-.328-.999-.805-1.674-1.679-1.5-1.943.372-.563-6.062-9.703-6.83-9.703-.288 0 1.08 2.185 3.04 4.855m-90.952-1.3c-1.864 1.494-1.852 1.512.309.465 1.237-.6 2.25-1.3 2.25-1.555 0-.765-.519-.544-2.559 1.09M235.084 60c.008 1.848 2.722 7.943 2.835 6.365.044-.625-.576-2.65-1.38-4.5s-1.458-2.69-1.455-1.865M165 60.449c0 .275 1.35 1.198 3 2.051s3 1.326 3 1.051-1.35-1.198-3-2.051-3-1.326-3-1.051M17.113 65.25c-4.417 11.859-12.129 35.351-11.902 36.253.159.627 3.295-7.779 6.97-18.681S18.657 63 18.406 63s-.833 1.013-1.293 2.25m55.637 1.818C70.688 68.157 69 69.271 69 69.544s1.8-.422 4-1.544 4-2.257 4-2.52c0-.654-.007-.652-4.25 1.588m71.5-.848c-1.238.597-2.25 1.425-2.25 1.839C142 68.78 156.019 75 157.643 75c.43 0-1.434-2.25-4.143-5-5.212-5.291-5.701-5.491-9.25-3.78m-16.055 2.28c.02 1.65.244 2.204.498 1.231s.237-2.323-.037-3-.481.119-.461 1.769M166 69.995c0 .419 1.238 1.267 2.75 1.883 3.537 1.442 12.686 3.132 11.587 2.141C178.99 72.805 166 69.159 166 69.995m-41.413 4.755c-.41.412-6.554.975-13.653 1.25l-12.908.5-4.098 4.1-4.098 4.1 16.335-3.579c8.984-1.968 16.491-3.944 16.682-4.391s.99-.281 1.774.371c.785.651 1.741.87 2.124.487s.097-1.068-.637-1.521c-1.107-.684-1.102-.917.029-1.367.75-.298.876-.578.28-.621s-1.419.259-1.83.671M128 75.865c0 2.328 3.663 3.872 5.301 2.234.799-.799.566-1.121-.851-1.178-1.073-.043-1.412-.298-.755-.565s2.007-.086 3 .402 3.155.6 4.805.249c2.653-.565 2.363-.727-2.5-1.395-3.025-.416-6.287-.979-7.25-1.252-1.248-.353-1.75.079-1.75 1.505m40-.984c0 .485 1.672 2.157 3.714 3.715l3.715 2.833-2.833-3.715C169.885 74.16 168 72.998 168 74.881m-5.543 3.693c1.911 1.736 3.1 2.255 3.362 1.468.519-1.557-.672-2.644-3.819-3.486-2.463-.659-2.456-.629.457 2.018M35.141 78c0 .825.386 2.4.859 3.5.542 1.261.859 1.445.859.5 0-.825-.386-2.4-.859-3.5-.542-1.261-.859-1.445-.859-.5m189.423.293c.376.986.935 1.541 1.243 1.233s.001-1.114-.683-1.793c-.988-.98-1.102-.865-.56.56m-1.533 1.207c0 .55.436 1.675.969 2.5s.969 1.05.969.5-.436-1.675-.969-2.5-.969-1.05-.969-.5M167 81.441c0 .793.45 1.719 1 2.059s1-.309 1-1.441S168.55 80 168 80s-1 .648-1 1.441M34.086 82c-.031.825.381 2.175.914 3 1.181 1.828 1.181.249 0-2.5-.567-1.319-.878-1.489-.914-.5m187.53 1.559c-.365.95-.427 1.963-.14 2.251.288.288.531-.114.539-.893.013-1.167.187-1.152.985.083.533.825.969 1.05.969.5s-.38-1.6-.845-2.334c-.67-1.057-.983-.976-1.508.393M36.086 88c-.031.825.381 2.175.914 3 1.181 1.828 1.181.249 0-2.5-.567-1.319-.878-1.489-.914-.5m105.319-.154c1.555 2.516 6.38 4.186 9.104 3.151 1.442-.549 3.154-.963 3.806-.921s-.342.628-2.209 1.304l-3.394 1.227 4.894 3.081C160.263 99.879 174.56 108 175.283 108c.322 0-.262-2.588-1.298-5.75s-2.374-7.662-2.973-10c-1.087-4.243-1.096-4.25-5.801-4.255-2.591-.003-9.17-.301-14.62-.661-7.441-.493-9.729-.366-9.186.512m15.408 1.837c.721.289 1.584.253 1.916-.079s-.258-.568-1.312-.525c-1.165.048-1.402.285-.604.604m15.187.422c0 1.625 5.047 17.895 5.551 17.895.409 0 6.449-12.824 6.449-13.693 0-.415-10.628-5.307-11.529-5.307-.259 0-.471.497-.471 1.105m47.079 6.478c.048 1.165.285 1.402.604.605.289-.722.253-1.585-.079-1.917s-.568.258-.525 1.312m-39.415 10.167-1.707 3.75 2.021-2.361c1.112-1.298 2.022-2.986 2.022-3.75 0-2.179-.5-1.675-2.336 2.361m-123.542-.846c-.813.514-1.053 1.398-.586 2.154.564.913.314 1.098-.872.643-.915-.351-1.664-.202-1.664.33 0 .533.848.969 1.883.969 1.215 0 2.053-.887 2.362-2.5.263-1.375.428-2.493.366-2.485-.061.009-.731.408-1.489.889m60.878.752c-8.169 1.253-9.137 1.548-8.722 2.655.245.654.048 2.089-.437 3.189-.809 1.835-.847 1.815-.455-.25.581-3.061.159-2.838-2.203 1.164l-2.014 3.413 3.666-1.52c3.725-1.545 15.165-8.296 15.165-8.949 0-.379-.959-.322-5 .298m.542 4.413c-9.727 6.875-9.859 7.057-11.614 16.053-1.537 7.876-1.53 8.005.278 5.718 2.941-3.718 4.239-6.233 2.739-5.306-1.563.966-.39-1.149 2.239-4.034 1.002-1.1 2.529-2.9 3.393-4s1.286-1.437.938-.75c-1.685 3.327.664.54 4.846-5.75 2.56-3.85 4.539-6.966 4.397-6.924s-3.389 2.289-7.216 4.993m9.855 8.931c0 7.975.156 11.238.346 7.25s.189-10.513 0-14.5c-.19-3.987-.346-.725-.346 7.25m11.103-9.436c9.324 6.011 10.893 6.88 10.1 5.598-.723-1.17-15.281-10.176-16.385-10.136-.393.014 2.435 2.057 6.285 4.538M242.186 108c-.025.825.294 2.367.709 3.427.676 1.724.823 1.75 1.399.25.354-.922.24-1.677-.252-1.677s-1.101-.787-1.353-1.75c-.31-1.186-.472-1.267-.503-.25m-27.986 3.7c-1.48 4.822-.764 5.538.8.8.66-1.999 1.005-3.828.767-4.066s-.943 1.232-1.567 3.266m-8.2.3c1.175 1.65 2.361 3 2.636 3s-.461-1.35-1.636-3-2.361-3-2.636-3 .461 1.35 1.636 3m-3.921-.417c.048 1.165.285 1.402.604.605.289-.722.253-1.585-.079-1.917s-.568.258-.525 1.312m-68.079.795c0 .207.787.995 1.75 1.75 1.586 1.243 1.621 1.208.378-.378-1.307-1.666-2.128-2.195-2.128-1.372m110.706.954c-.924 2.397-.891 2.9.149 2.258.47-.291.837.695.815 2.191s.317 3.956.753 5.469l.794 2.75H228.64c-17.233 0-18.538-.127-18.033-1.75.518-1.667.49-1.667-.581 0-1.875 2.916-2.86 2.032-5.017-4.5-2.309-6.995-2.105-4.394.371 4.711.891 3.279 1.347 6.823 1.013 7.876-.399 1.256-.227 1.678.5 1.229.621-.384 1.107-.026 1.107.816 0 .825.52 1.821 1.155 2.213.693.429.883.276.476-.383-.373-.603-.829-2.888-1.015-5.077l-.338-3.981 19.361-.112c10.649-.062 19.361.241 19.36.673 0 .432-.919 3.203-2.042 6.159-1.124 2.955-1.852 5.565-1.618 5.798.234.234 1.215-1.771 2.181-4.457.965-2.685 2.349-4.882 3.074-4.882s1.076.393.779.872c-.296.479.028 3.079.719 5.777 1.147 4.476 1.04 5.567-1.226 12.462-1.365 4.156-2.207 7.556-1.871 7.556.812 0 4.724-12.441 5.504-17.5.339-2.2.825-5.016 1.079-6.257.277-1.347.013-2.153-.653-2-.615.141-1.509-.755-1.989-1.993-.506-1.306-.496-2.25.023-2.25.492 0 1.1.787 1.352 1.75.435 1.667.463 1.667.573 0 .064-.963.903-1.764 1.866-1.78 1.667-.029 1.667-.079 0-1.05-1.213-.707-1.75-2.268-1.75-5.092 0-3.507-.208-3.9-1.5-2.828-.825.685-1.493 1.752-1.485 2.372.009.621.452.453.985-.372.719-1.113.973-.51.985 2.333.023 5.785-1.91 4.083-4.397-3.872-1.595-5.105-2.364-6.473-2.882-5.129m-66.194 3.262c-.332 1.598-1.461 6.056-2.508 9.906-1.048 3.85-1.786 7.801-1.641 8.781.235 1.59 6.498 6.719 8.205 6.719.37 0 .486-5.63.257-12.51-.329-9.885-.762-12.855-2.063-14.156-1.528-1.528-1.689-1.438-2.25 1.26m-120.674 3.075c-2.988 4.514-6.321 14.472-7.332 21.9l-.671 4.931 2.074-3.261c4.301-6.761 9.638-22.163 8.937-25.796-.266-1.381-.962-.866-3.008 2.226m10.567 1.581L66.5 123.5l2.25-1.905c1.237-1.048 2.25-2.06 2.25-2.25 0-.8-.805-.209-2.595 1.905M211.5 120c.34.55.816 1 1.059 1s.441-.45.441-1-.477-1-1.059-1-.781.45-.441 1m-181 4.622-5 4.581 5.25-4.195c4.546-3.632 5.986-5.069 5-4.987-.138.011-2.5 2.082-5.25 4.601m70.265-.496-4.735 4.057 3.033 4.408c3.301 4.798 3.563 5.023 3.687 3.159.045-.687.743-4.512 1.55-8.5.807-3.987 1.407-7.234 1.334-7.215-.074.019-2.265 1.86-4.869 4.091m72.353 3.992c-1.157 3.426-1.932 6.401-1.722 6.612.211.21 1.329-2.421 2.486-5.848s1.932-6.401 1.722-6.612c-.211-.21-1.329 2.421-2.486 5.848m11.604-2.793c.284 1.487.913 2.949 1.397 3.249.485.299.874 1.08.866 1.735-.01.716-.403.592-.985-.309-.695-1.076-.961-.085-.941 3.5l.029 5 1.441-4c1.873-5.2 1.811-6.499-.449-9.44l-1.875-2.44zm-38.14 3.925c4.056 5.674 7.399 9.517 5.872 6.75-1.329-2.409-8.65-12-9.159-12-.256 0 1.223 2.362 3.287 5.25m-47.413-2.5-2.053 1.75 2.442 3.472c1.458 2.072 2.442 2.827 2.442 1.872 0-.879-.685-2.168-1.523-2.863-1.362-1.131-1.36-1.511.024-3.622 1.839-2.808 1.454-2.984-1.332-.609m-93.997 7.835C3.978 139.013 3 143.35 3 144.221c0 3.638 14.764 42.349 15.768 41.344.211-.211-1.851-5.937-4.583-12.724-9.278-23.051-10.637-30.757-7.151-40.57.631-1.776.959-3.793.729-4.483s-1.396 2.369-2.591 6.797m87.876-3.143c-.985 1.187-.468 1.813 2.932 3.548l4.129 2.106-1.664-2.539c-.915-1.397-2.059-2.295-2.543-1.996-.483.298-.611-.155-.284-1.009.75-1.954-.978-2.028-2.57-.11M250.086 133c-.031.825.381 2.175.914 3 1.181 1.828 1.181.249 0-2.5-.567-1.319-.878-1.489-.914-.5m-203.928 3c0 1.375.227 1.938.504 1.25.278-.687.278-1.812 0-2.5-.277-.687-.504-.125-.504 1.25m28.603 3.272c-3.156 2.246-5.575 4.247-5.375 4.448.623.622 12.614-6.761 12.614-7.768 0-1.535-1.168-1-7.239 3.32m15.27 6.228c0 6.05.354 10.443.786 9.762 1.189-1.872 1.366-17.547.218-19.262-.703-1.049-1.004 1.806-1.004 9.5m2.797-1.857.327 8.647 3.919-5.895c2.156-3.242 3.921-6.223 3.923-6.625.002-.592-7.172-4.764-8.207-4.772-.16-.002-.143 3.889.038 8.645m83.731-6.175c1.067.808 2.365 1.483 2.882 1.5.518.018.068-.629-1-1.436-1.067-.808-2.365-1.483-2.882-1.5-.518-.018-.068.629 1 1.436m-108.434 2.157c-.66 1.448-.971 2.863-.69 3.143.28.28.984-.74 1.565-2.268 1.372-3.608.684-4.296-.875-.875m47.625-1.963c.688.278 1.813.278 2.5 0 .688-.277.125-.504-1.25-.504s-1.937.227-1.25.504m94.32.735c-.106 1.364 4.159 12.708 4.608 12.258.216-.216-.717-3.264-2.073-6.774-1.356-3.509-2.497-5.977-2.535-5.484m-103.606 2.563c2.166 2.394 13.768 10.04 15.233 10.04.582 0 1.534-.573 2.115-1.273.808-.974-.804-2.386-6.844-6-4.345-2.6-8.885-4.727-10.089-4.727-2.111 0-2.126.07-.415 1.96m6.536-1.528c0 .237 1.463 1.442 3.25 2.677l3.25 2.246-2.424-2.677c-2.162-2.388-4.076-3.443-4.076-2.246M204.158 142c0 1.375.227 1.938.504 1.25.278-.687.278-1.812 0-2.5-.277-.687-.504-.125-.504 1.25m-96.684 4.75c1.408 2.887 2.789 5.25 3.069 5.25s-.211-1.392-1.091-3.093-1.426-3.266-1.214-3.478 1.38 1.663 2.596 4.166 1.756 4.27 1.2 3.926c-.592-.366-.764.018-.416.927.819 2.133 2.386 1.939 5.691-.706l2.809-2.248-5.505-3.336c-3.028-1.835-5.735-3.184-6.016-2.997-.281.186-1.224-.561-2.097-1.661-.872-1.1-.433.363.974 3.25m-45.332.269c-5.929 3.896-6.555 4.797-1.335 1.921 2.369-1.305 4.786-2.95 5.372-3.656 1.469-1.77.971-1.556-4.037 1.735m113.968 2.479c-3.36 2.474-6.11 4.738-6.11 5.031 0 .48 10.108-6.562 12.45-8.673 2.664-2.401-.955-.322-6.34 3.642M70 149.563c0 1.777 1.768 4.439 5.652 8.511 3.109 3.259 6.146 5.924 6.75 5.921s2.404-1.05 4-2.327c4.485-3.589 3.128-6.867-4.42-10.677-3.29-1.661-5.982-2.796-5.982-2.521s2.588 1.834 5.75 3.466 5.403 2.989 4.978 3.016c-.425.026-4.362-1.757-8.75-3.963L70 146.978zm115.403-.172c-.319.832-.289 1.985.067 2.561.357.576.171 1.048-.411 1.048S184 154.152 184 155.559c0 1.479.429 2.294 1.016 1.931.559-.346.777-1.016.484-1.49s-.006-1.187.638-1.585c.767-.474.902-.289.391.538-1.006 1.628 3.618.314 4.706-1.338 1.147-1.742.963-2.067-2.243-3.961-2.627-1.551-3.081-1.585-3.589-.263m-61.728 2.267c-.362.362-.099 1.336.584 2.164 1.081 1.312.953 1.352-.999.312-1.829-.975-2.711-.885-4.809.49-1.937 1.269-2.247 1.889-1.261 2.515 3.55 2.251 8.81-.263 8.81-4.21 0-1.926-1.08-2.516-2.325-1.271M128 152c0 .55.702 1 1.559 1s1.281-.45.941-1-1.041-1-1.559-1-.941.45-.941 1m64.518 1.943c-.324 1.022-1.586 2.117-2.804 2.433-1.218.317-4.239 2.347-6.714 4.512l-4.5 3.937 7-1.391c10.272-2.041 18.51-4.609 17.908-5.582-.289-.469-2.637-.911-5.217-.984-4.354-.122-4.447-.176-1.285-.75l3.406-.618-3.602-1.708c-3.449-1.635-3.627-1.629-4.192.151M27.067 165.61c-1.687 5.396-3.022 10.278-2.968 10.85.055.572 1.614-3.663 3.465-9.412s3.186-10.631 2.967-10.85-1.778 4.016-3.464 9.412m31.425-2.719c5.26 3.584 6.075 3.87 6.679 2.346 1.31-3.305.811-3.984-3.421-4.657-2.337-.372-5.375-.922-6.75-1.223-1.642-.36-.444.853 3.492 3.534m77.637 6.851c-4.615 5.939-5.692 7.923-4.623 8.521 1.244.696 11.494-4.573 11.494-5.908 0-.51-.484-.251-6.344 3.397-2.115 1.316-4.042 2.195-4.284 1.954-.241-.241 2.693-2.299 6.52-4.572 7.096-4.216 10.039-5.375 6.549-2.579-1.866 1.495-1.854 1.513.299.47 1.232-.596 2.132-1.524 2-2.06-.132-.537 2.01-2.316 4.76-3.954l5-2.977-7.677-.017-7.677-.017zm-80.379-5.707c1.671 1.825 1.58 5.049-.217 7.614-2.34 3.341-8.911 1.672-13.72-3.484l-3.755-4.025-3.225 5.868c-1.774 3.227-3.657 5.601-4.184 5.275s-.678-.138-.335.416c.343.555-.703 3.099-2.323 5.655-3.254 5.131-3.168 5.462.756 2.896 1.471-.963 2.329-1.187 1.905-.5-1.021 1.657-.626 1.596 4.848-.75 7.705-3.303 6.547-2.147-2 1.996l-8 3.879 29.751-.188c16.363-.103 29.75.151 29.75.563-.001.677-22.417 1.395-34.24 1.096-2.607-.066-4.492.28-4.191.767.779 1.261-1.954 1.103-3.245-.188C42.11 189.71 21 190.747 21 192.021c0 .412 1.012 1.425 2.25 2.251s6.849 5.528 12.469 10.449c5.646 4.944 13.031 10.342 16.5 12.062 27.237 13.501 61.709 29.909 61.238 29.147-.924-1.495 1.183-1.069 2.487.503.654.788 2.016 1.37 3.027 1.294 1.764-.133 1.758-.34-.164-5.183-2.772-6.984-13.153-35.86-15.295-42.544-1.876-5.855-5.172-10.344-7.062-9.619-.631.242-2.885-1.107-5.009-2.997s-4.438-3.216-5.14-2.946c-.702.269-1.17.106-1.039-.364s-4.682-4.308-10.696-8.53c-11.409-8.009-20.963-13.853-18.816-11.509m161.82 1.852c-.301.487.235 1.5 1.191 2.25 1.536 1.204 1.594 1.177.498-.229-.683-.876-.946-1.888-.584-2.25s.385-.658.051-.658c-.335 0-.855.399-1.156.887M82 167.819c0 1.208 1.897 2.617 2.591 1.924.251-.252-.229-1.027-1.067-1.723-.95-.789-1.524-.865-1.524-.201m127.405 1.292c-1.63 1.806-2.7 2.039-7.405 1.607-5.256-.482-5.367-.445-2.5.843 5.203 2.339 9.379 1.401 11.512-2.584 1.37-2.56.78-2.511-1.607.134m29.276 7.008c-1.527 5.016-2.622 9.273-2.434 9.462.188.188 1.745-3.916 3.459-9.12S242.515 167 242.14 167c-.376 0-1.932 4.104-3.459 9.119m-178.478-4.277-3.297 1.758h3.532c1.943 0 3.035-.307 2.427-.683-.72-.445-.454-1.062.765-1.77 3.1-1.801.121-1.197-3.427.695m130.354-.26c-1.066.78-1.516 1.411-.998 1.403 1.382-.023 3.961-1.799 3.41-2.349-.259-.26-1.345.166-2.412.946m30.061-.332c.405.688 2.968 4.585 5.697 8.66s4.337 7.151 3.574 6.835c-.764-.317-8.978-4.013-18.253-8.213s-17.039-7.462-17.253-7.248c-.215.214 7.016 3.69 16.067 7.724s16.25 7.669 15.997 8.078.106.971.797 1.25c.691.278-11.794.614-27.744.746l-29 .241 30.834.751c16.959.413 31.922 1.024 33.25 1.358 2.888.724 2.926.265.416-4.932-1.063-2.2-1.963-4.675-2.002-5.5-.044-.954-.541-.648-1.366.839-1.271 2.291-1.396 2.194-6.141-4.75-2.664-3.899-5.016-7.089-5.227-7.089-.21 0-.051.563.354 1.25m8.468.25c.104 1.894 1.77 5.084 1.828 3.5.031-.825-.381-2.175-.914-3s-.945-1.05-.914-.5m-163.353 3.624c.679.684 1.486.991 1.793.683.308-.308-.247-.867-1.233-1.243-1.425-.542-1.54-.428-.56.56M122 176.882c0 .55.45 1.278 1 1.618s1 .168 1-.382-.45-1.278-1-1.618-1-.168-1 .382m57 .118c-.825.533-1.05.969-.5.969s1.675-.436 2.5-.969 1.05-.969.5-.969-1.675.436-2.5.969m-134 2c-.825.533-1.05.969-.5.969s1.675-.436 2.5-.969 1.05-.969.5-.969-1.675.436-2.5.969m116.437 2.25-2.937 3.25 3.25-2.937c3.029-2.738 3.71-3.563 2.937-3.563-.172 0-1.635 1.463-3.25 3.25m67.594-2.75c0 .55.436 1.675.969 2.5s.969 1.05.969.5-.436-1.675-.969-2.5-.969-1.05-.969-.5M118 181.549c1.933 1.187 2.047 1.422.5 1.04-7.658-1.892-7.811-1.903-7-.485 1.459 2.553 4.834 5.896 5.924 5.869 1.39-.035 8.22-5.68 7.57-6.257-.272-.241-2.519-.722-4.994-1.07-4.365-.613-4.425-.586-2 .903m-85.493.44c-.35.566.051.734.941.393 1.732-.665 2.049-1.382.611-1.382-.518 0-1.216.445-1.552.989m88.698 4.799-3.294 2.733 3.342 3.24c1.838 1.781 3.658 3.239 4.045 3.239.386 0 .702-2.7.702-6s-.338-5.988-.75-5.973-2.233 1.257-4.045 2.761M158 189.383c0 .888 4.046 1.352 4.558.523.308-.498-.592-.906-1.999-.906s-2.559.173-2.559.383m-70.25 1.323c1.237.238 3.263.238 4.5 0 1.237-.239.225-.434-2.25-.434s-3.487.195-2.25.434m-22.5 1.022c2.063.216 5.438.216 7.5 0 2.063-.215.375-.392-3.75-.392s-5.812.177-3.75.392M49 193c.825.533 1.95.969 2.5.969s.325-.436-.5-.969-1.95-.969-2.5-.969-.325.436.5.969m162.5 1.535c-2.501 1.205-2.584 1.343-.5.834 2.834-.692 6.018-2.316 4.5-2.293-.55.008-2.35.664-4 1.459m-52.5.524c0 .582.45.781 1 .441s1-.816 1-1.059-.45-.441-1-.441-1 .477-1 1.059M57 196.5c1.375.786 2.95 1.429 3.5 1.429s-.125-.643-1.5-1.429-2.95-1.429-3.5-1.429.125.643 1.5 1.429m49.534 9.188c9.958 27.575 14.998 40.413 15.289 38.943.178-.897.741-1.631 1.25-1.631.531 0 .927-6.977.927-16.344v-16.344l-9.25-6.497c-5.088-3.574-9.814-6.822-10.504-7.218-.697-.4.32 3.639 2.288 9.091M202 198.5c-2.475 1.325-4.05 2.41-3.5 2.41s3.025-1.085 5.5-2.41 4.05-2.41 3.5-2.41-3.025 1.085-5.5 2.41m-49 8.5c-2.212 4.4-3.797 8-3.522 8s2.31-3.6 4.522-8 3.797-8 3.522-8-2.31 3.6-4.522 8m-82-4c3.025 1.598 5.95 2.906 6.5 2.906S76.025 204.598 73 203s-5.95-2.906-6.5-2.906 1.475 1.308 4.5 2.906m122-.5c-1.375.786-2.05 1.429-1.5 1.429s2.125-.643 3.5-1.429 2.05-1.429 1.5-1.429-2.125.643-3.5 1.429m-6 2.5c-.825.533-1.05.969-.5.969s1.675-.436 2.5-.969 1.05-.969.5-.969-1.675.436-2.5.969m-108 1.393c0 .216.698.661 1.552.989.89.341 1.291.173.941-.393-.587-.951-2.493-1.406-2.493-.596m70 .607c0 .55.45 1 1 1s1-.45 1-1-.45-1-1-1-1 .45-1 1m-65 1.378c0 .207.787.995 1.75 1.75 1.586 1.243 1.621 1.208.378-.378-1.307-1.666-2.128-2.195-2.128-1.372M197 218c-1.925 1.054-3.14 1.935-2.7 1.958 1.059.056 6.7-2.877 6.7-3.484 0-.654-.059-.632-4 1.526m-114 3.445c0 .739 29.075 23.813 29.487 23.401.221-.22-3.024-3.088-7.21-6.373C86.386 223.648 83 221.06 83 221.445m23 10.933c0 .207.787.995 1.75 1.75 1.586 1.243 1.621 1.208.378-.378-1.307-1.666-2.128-2.195-2.128-1.372m7.934 9.372c2.409 2.887 4.571 5.25 4.807 5.25.678 0-5.48-7.545-7.426-9.096-.968-.772.211.959 2.619 3.846"/><path fill="#1976D2" fill-opacity=".366" fill-rule="evenodd" d="M130.405 1.845c.392.635.161 1.155-.513 1.155s-.931.294-.572.653-.279 2.272-1.419 4.25l-2.073 3.597 2.228-2.83c1.649-2.095 2.434-2.495 3.025-1.539.49.793.762.04.705-1.956-.051-1.786-.543-3.525-1.094-3.865-.565-.35-.691-.117-.287.535M111 51.497c-13.587 6.874-16.9 8.979-18.765 11.925C90.99 65.39 89.547 67 89.03 67c-.518 0-2.614 1.135-4.658 2.522-3.714 2.521-14.086 6.097-15.009 5.175-.268-.269 2.803-1.625 6.825-3.014 4.886-1.687 6.431-2.551 4.658-2.604-1.46-.043-6.489 1.761-11.176 4.01-9.217 4.423-12.35 7.772-14.743 15.761-.684 2.282-1.485 4.15-1.781 4.15s-1.911-1.237-3.591-2.748c-2.818-2.535-2.795-2.465.295.901l3.35 3.648-1.692 5.82c-1.282 4.41-1.66 9.354-1.561 20.405.115 12.827-1.374 27.371-3.494 34.107-.349 1.111.695 2.373 3.267 3.946 6.256 3.828 8.377 4.887 7.75 3.872-.328-.531-1.96-1.67-3.626-2.532-1.667-.861-2.816-1.78-2.554-2.042.5-.501 13.31 2.258 14.822 3.192.484.3.211 1.84-.608 3.424l-1.489 2.879 13.874 9.517c7.631 5.235 14.624 10.267 15.54 11.183.917.916 1.939 1.394 2.272 1.061s2.591 1.225 5.018 3.462 5.03 3.832 5.783 3.543c1.661-.638 7.998 3.453 7.998 5.163 0 1.953 10.698 9.588 12.017 8.576.627-.483 3.294-2.452 5.926-4.377 2.631-1.925 7.33-5.975 10.441-9 3.785-3.68 10.119-7.955 19.137-12.918 7.413-4.08 20.264-11.393 28.558-16.25 8.293-4.858 15.822-8.832 16.73-8.832 1.39 0 1.556-.755 1.046-4.75-.334-2.613-1.218-7.45-1.965-10.75s-1.169-4.312-.937-2.25.052 3.75-.399 3.75c-1.402 0-2.003-4.187-1.43-9.964.383-3.858-.224-9.324-2.003-18.036-1.403-6.875-2.543-13.4-2.532-14.5.03-2.958-1.534-8.976-4.738-18.238-2.286-6.606-3.247-8.24-4.851-8.25-1.1-.008-4.812-1.344-8.25-2.97s-6.248-2.639-6.245-2.25c.003.39 1.69 1.483 3.75 2.43l3.745 1.722-4.5-.533c-2.475-.293-5.85-1.023-7.5-1.621-2.941-1.067-9.378-6.983-9.625-8.846l-.25-1.894c-.193-1.47-1.585-2.485-9.046-6.598-3.807-2.099-6.587-3.274-6.178-2.612.41.663 3.322 2.506 6.472 4.096 5.147 2.598 6.339 3.849 8.956 9.398.217.459-2.723-.778-6.533-2.75-3.809-1.971-7.406-3.584-7.993-3.584-1.379 0-9.518-8.118-8.83-8.807.287-.287-1.164-1.559-3.225-2.826s-3.099-2.319-2.307-2.336c1.039-.022.899-.441-.5-1.499-1.067-.808-2.391-1.449-2.941-1.426s-8.425 3.799-17.5 8.391m10.3.089c-2.09 2.522-3.676 5.03-3.525 5.574s-.074.795-.5.558-4.825 3.565-9.775 8.449-8.1 8.582-7 8.217 7.509-3.268 14.242-6.451l12.242-5.788-.144-7.573c-.079-4.164-.503-7.572-.942-7.572s-2.508 2.064-4.598 4.586m8.7-3.208c0 .207.787.995 1.75 1.75 1.586 1.243 1.621 1.208.378-.378-1.307-1.666-2.128-2.195-2.128-1.372m-17.5 4.23c-3.3 1.409-7.687 3.267-9.75 4.128S99 58.613 99 58.991c0 1.058 5.032 3.108 6.063 2.47.503-.311.647.131.321.981-.327.851-.996 1.298-1.489.993-.492-.304-.895-.086-.895.486 0 .571-1.744 1.928-3.877 3.016s-4.143 2.673-4.47 3.524c-.516 1.346-.241 1.331 2.127-.11 2.64-1.607 2.631-1.57-.315 1.247-4.672 4.468-7.887 7.035-7.078 5.652 1.253-2.143-4.846-1.464-7.812.87-2.588 2.035-2.622 2.184-.872 3.75 5.371 4.802 4.184 5.372 18.724-8.982 7.416-7.321 13.33-13.464 13.142-13.652-.187-.188 1.745-2.332 4.295-4.766 5.323-5.079 4.248-5.538-4.364-1.862m15.5 4.949v4.557l12.729 6.153c7.001 3.384 14.088 7.499 15.75 9.144 2.851 2.823 2.872 2.898.371 1.333-1.573-.985-7.871-2.328-15.5-3.306-15.165-1.944-13.514-1.9-20.236-.533-2.963.602-9.386 1.095-14.273 1.095h-8.886l-4.519 4.165c-2.933 2.705-4.114 4.416-3.364 4.879.834.516.776.864-.209 1.256-.75.298 4.76.578 12.243.621l13.606.079 4.894-3.736c3.912-2.987 4.513-3.81 2.998-4.102-1.387-.267-1.552-.576-.615-1.155.703-.435 2.681-.344 4.395.203s3.954.971 4.979.945 1.544.266 1.155.649c-.39.383 1.922 1.247 5.137 1.92l5.845 1.225-5.934-.505c-3.264-.278-6.526-.996-7.25-1.597-.724-.6-1.313-.699-1.308-.219.013 1.561 7.802 5.369 11.19 5.472 2.968.089 3.054.169.849.784-2.199.613-1.419 1.318 7.5 6.781 13.217 8.097 25.47 14.979 28.018 15.738 1.63.485 2.391-.071 3.619-2.644l1.555-3.259.881 6.5c.824 6.087 1.103 6.611 4.38 8.248 1.925.962 2.799 1.75 1.941 1.75-.857.001-2.432-.659-3.5-1.466-3.626-2.743-3.847-1.546-.387 2.101 3.328 3.509 3.346 3.57.533 1.778l-2.913-1.855.682 9.707c.375 5.339 1.087 10.772 1.582 12.074 1.015 2.669 16.54 13.103 18.081 12.151.539-.333.981-.054.981.62s.256.969.57.656c.779-.779-3.026-8.068-5.118-9.804-.932-.773-.515.332.927 2.456 1.441 2.125 2.597 4.363 2.569 4.974s-.817-.015-1.75-1.39c-.934-1.375-2.69-3.512-3.903-4.75-1.212-1.238-1.969-2.25-1.681-2.25.287 0-.443-1.355-1.622-3.012-1.234-1.732-2.643-2.726-3.318-2.339-.646.369-.852.315-.459-.12.839-.93-.883-4.529-2.167-4.529-.485 0-1.333 1.238-1.886 2.75s-1.02 2.075-1.039 1.25.613-3.3 1.406-5.5 1.448-5.012 1.456-6.25c.008-1.237.465-2.25 1.015-2.25 1.213 0 1.21-.218.056 3.804-.87 3.036-.581 3.746 3.75 9.191 2.685 3.375 4.827 5.309 5.005 4.517.171-.762-1.252-6.251-3.164-12.199-1.911-5.947-3.767-12.163-4.124-13.813-1.576-7.277-3.787-13.621-5.26-15.095-.878-.877-1.596-2.965-1.596-4.639 0-2.77-.572-3.302-6.379-5.935-3.509-1.591-6.809-2.627-7.334-2.303-.525.325-.954.113-.954-.469S168.345 87 166.322 87C161.448 87 148 83.836 148 82.689c0-.496.787-.592 1.75-.212.963.381 5.002 1.406 8.976 2.278 6.874 1.509 7.397 1.494 10.75-.312 1.938-1.044 3.524-2.161 3.524-2.482s-1.35-1.583-3-2.803c-1.969-1.455-3.01-1.778-3.03-.938-.018.752-.452.558-1.05-.47-.577-.991-2.204-1.75-3.751-1.75-2.01 0-4.288-1.573-8.622-5.953-3.24-3.274-6.264-5.722-6.719-5.441s-.828-.178-.828-1.021c0-.844-1.35-2.232-3-3.085s-3-1.791-3-2.085c0-.293.563-.247 1.25.102.688.35.188-.299-1.111-1.441S137.292 55 136.698 55s-.207.694.861 1.543c1.067.848-.407.398-3.276-1S128.827 53 128.533 53 128 55.051 128 57.557m20.852 6.166c.534.998 3.184 3.68 5.888 5.961 3.511 2.96 5.324 3.889 6.339 3.246 2.24-1.418 3.618-1.016 1.646.48-1.649 1.252-1.595 1.382.762 1.832 3.088.591 3.094-1.737.013-4.601-1.1-1.022-1.876-2.293-1.725-2.824s-.188-.679-.754-.33-2.94-.348-5.275-1.551c-8.496-4.377-7.96-4.205-6.894-2.213m14.119.746c2.043 2.175 4.029 2.572 4.029.805 0-.334-.297-.31-.66.053s-1.289-.237-2.057-1.333S162.384 62 161.769 62s-.074 1.111 1.202 2.469m-37.072-.719c-.378 2.798.49 7.871 1.449 8.47 1.566.978 3.769-7.396 2.224-8.455-1.4-.959-3.545-.968-3.673-.015M167 73.828c0 .422 1.804 2.527 4.008 4.68l4.008 3.913-2.258 1.254c-2.114 1.174-2.13 1.257-.258 1.305 1.415.036 1.626.288.722.862-.922.585-.538 1.149 1.379 2.022 3.416 1.557 4.23.712 1.849-1.919-1.485-1.641-1.599-2.235-.553-2.881.923-.571.986-1.018.21-1.498-1.776-1.098-1.274-2.563.643-1.875.963.345 1.454.297 1.092-.107s-1.463-.852-2.446-.996-1.983-.849-2.222-1.565q-.434-1.302.946-.502c.815.472 1.039.427.547-.111-.459-.5-1.134-.917-1.5-.925s-1.117-.277-1.667-.596c-2.122-1.232-4.5-1.792-4.5-1.061m27.813-.145c.721.289 1.584.253 1.916-.079s-.258-.568-1.312-.525c-1.165.048-1.402.285-.604.604m8.205 2.567c2.881 1.459 4.678 3.129 5.113 4.75l.67 2.5.099-2.73c.081-2.216-.644-3.109-3.86-4.75-2.178-1.111-4.524-2.02-5.212-2.02-.689 0 .747 1.013 3.19 2.25m-24.256.457c1.244.239 3.044.23 4-.02s-.062-.446-2.262-.435-2.982.216-1.738.455M135 78.387c0 .212 1.326.581 2.947.819 1.621.237 2.72.064 2.441-.387-.495-.802-5.388-1.194-5.388-.432m25.781.212c-.289.495.317 1.767 1.347 2.826 2.153 2.214 2.531.858.525-1.885-.741-1.014-1.584-1.437-1.872-.941M45 81.667c0 2.931.178 2.892 1.9-.417.97-1.865.907-2.25-.365-2.25-.996 0-1.535.936-1.535 2.667m71.813-1.984c.721.289 1.584.253 1.916-.079s-.258-.568-1.312-.525c-1.165.048-1.402.285-.604.604m72.17-.1c-.009.505-1.984 3.014-4.389 5.578-3.155 3.362-4.069 4.964-3.283 5.75.599.599 1.524 1.089 2.056 1.089.531 0 .687-.279.346-.62-.341-.342.96-3.091 2.891-6.11 1.931-3.018 3.26-5.739 2.953-6.046-.306-.306-.565-.145-.574.359M166 82.941c0 .518.445 1.216.989 1.552.566.35.734-.051.393-.941-.665-1.732-1.382-2.049-1.382-.611m24.717 5.239c-.389 4.294-.196 6.53.606 7.041 1.237.786 5.677 1.074 5.677.368 0-.9-4.379-12.141-5.023-12.895-.379-.443-.946 2.026-1.26 5.486M75.592 85.5c-1.855 2.83-1.623 2.914 3.865 1.39l3.957-1.098-2.457-1.361c-3.313-1.834-3.486-1.799-5.365 1.069m45.684 3.378c-6.067 8.361-6.071 8.442-.553 10.42 2.627.941 5.002 1.708 5.277 1.703s.521-4.057.546-9.005-.2-8.983-.5-8.967-2.447 2.648-4.77 5.849m10.744-3.181c1.364 1.705 5.014 6.183 8.111 9.952 3.097 3.768 8.9 12.026 12.894 18.351s7.412 11.677 7.595 11.893c.535.632 3.033-1.734 9.342-8.85l5.919-6.677-14.686-8.433c-8.078-4.638-17.839-10.481-21.691-12.984-10.218-6.64-10.182-6.625-7.484-3.252M128 93c0 4.95.18 9 .401 9 .22 0 2.638-1.037 5.373-2.304l4.972-2.303-4.891-6.697c-2.69-3.683-5.108-6.696-5.373-6.696S128 88.05 128 93m-71.852-4.101C54.647 93.912 54.661 94 57 94c1.662 0 2-.667 2-3.941 0-5.291-1.438-5.877-2.852-1.16M60 89.932c0 2.742.319 3.068 3 3.068 1.65 0 3-.419 3-.932 0-.512-1.35-1.893-3-3.068l-3-2.136zm20.162.026c-7.015 2.389-7.655 3.145-5.253 6.2 1.082 1.375 2.251 3.814 2.597 5.421.5 2.318.225 2.069-1.334-1.206C74.423 96.699 72 93.863 72 95.491c0 .976 3.095 6.761 5.275 9.861l2.007 2.852 2.416-7.352c3.442-10.47 4.187-12.861 3.982-12.782-.099.039-2.582.888-5.518 1.888m11.835 1.539c2.516 2.595 3.621 3.175 4.29 2.25.635-.879.744-.752.367.43-.295.924.223 2.27 1.155 3 1.504 1.177 1.546 1.137.376-.357-1.13-1.445-.99-1.851 1-2.9 1.273-.671 2.602-1.66 2.953-2.198.873-1.337 3.064.142 2.224 1.502-.391.632-.208.799.44.398 2.095-1.294.026-3.512-3.638-3.899-2.33-.246-1.366-.448 2.645-.555 4.548-.121 6.11.154 5.596.987-.446.721-.274.882.457.43 2.801-1.731-.707-2.585-10.617-2.585H88.608zm-6.435 2.938c-.901 3.098-1.326 6.138-.945 6.754.421.682.24.841-.462.406-.635-.392-1.155-.571-1.155-.397s-.427 1.805-.949 3.625c-.71 2.475-.647 3.198.25 2.868.659-.242 1.092-.931.961-1.53-.137-.629.46-.821 1.414-.455 1.197.459 1.427.269.834-.691-.524-.847-.431-1.084.259-.658 1.476.912 8.388-3.294 7.575-4.609-.383-.62-.176-.762.501-.343 1.862 1.15 3.444-.352 2.09-1.983-.639-.77-1.63-1.11-2.203-.756-.572.353-.764.195-.425-.353.338-.548-.897-2.462-2.746-4.254L87.2 88.801zM92 89.378c0 .207.685.946 1.523 1.641 1.273 1.057 1.42.995.893-.378C93.878 89.24 92 88.257 92 89.378m-32 8.277c0 2.592.048 2.612 2 .845 1.1-.995 2-2.19 2-2.655S63.1 95 62 95c-1.498 0-2 .667-2 2.655M203.158 97c0 1.375.227 1.938.504 1.25.278-.687.278-1.812 0-2.5-.277-.687-.504-.125-.504 1.25M56 96.882c0 .55.45 1.278 1 1.618s1 .168 1-.382-.45-1.278-1-1.618-1-.168-1 .382m11.702.791c-.301.487-1.943 4.398-3.648 8.691-1.705 4.292-4.576 10.129-6.38 12.97S53.649 126.975 52.74 130c-1.989 6.613-3.919 17.154-3.263 17.811.26.259 2.57-3.867 5.134-9.17 2.563-5.302 5.275-9.641 6.025-9.641s1.364.231 1.364.513.878 3.681 1.951 7.554l1.951 7.041-8.451 5.452c-4.648 2.998-8.451 5.707-8.451 6.019 0 .665 9.608-4.649 15.8-8.739 2.365-1.562 4.642-2.84 5.059-2.84s3.396-1.588 6.62-3.53 6.175-3.178 6.557-2.75c.382.429 1.914 4.155 3.403 8.28s3.031 8.339 3.426 9.366c.578 1.503 1.812.146 6.363-7 3.528-5.541 5.294-9.222 4.709-9.816-1.519-1.54-1.07-2.905.522-1.584 1.205 1 2.029.398 4.75-3.466 1.81-2.572 3.293-5.376 3.296-6.232s.881-2.054 1.951-2.662 2.795-2.006 3.832-3.106c1.412-1.498 1.334-1.169-.31 1.308-1.208 1.819-2.035 3.433-1.837 3.586.197.154 2.906 1.713 6.018 3.464 4.09 2.302 5.802 2.833 6.172 1.914.315-.786.541-.603.59.478.043.963.529 1.75 1.079 1.75.621 0 1-5.546 1-14.638v-14.637l-2.75 3.615c-6.996 9.196-7.874 9.536-1.915.74 2.404-3.548 2.628-4.28 1.136-3.707-1.735.665-1.749.592-.222-1.096 1.549-1.711 1.342-1.925-3.827-3.959l-5.464-2.151-2.498 3.667-2.499 3.666 2.769.632c2.626.599 2.588.639-.73.772-3.225.129-3.876.737-8.286 7.749-2.632 4.184-4.626 7.768-4.43 7.964.195.195 2.078-1.222 4.183-3.15 2.105-1.929 3.997-3.337 4.204-3.13.736.737-.905 3.663-2.055 3.663-1.077 0-11.545 9.698-14.316 13.265-.661.849-1.615 4.85-2.121 8.89l-.921 7.345-.129-7.809c-.09-5.431-.466-7.601-1.237-7.124-.672.415-.896 2.306-.571 4.809l.537 4.124-1.565-3.75c-.86-2.062-1.911-3.75-2.335-3.75s-.583-.787-.354-1.75-.896-5.8-2.501-10.75-2.958-8.186-3.01-7.191S76.55 117.84 76 117.5s-1.036.196-1.079 1.191c-.049 1.119-.277 1.316-.597.517-.421-1.048-.83-1.051-2.171-.017-1.376 1.061-1.36.929.097-.787 2.071-2.44 2.333-4.133.39-2.52-1.108.919-1.477.153-1.991-4.128-.348-2.891-.642-6.831-.656-8.756-.025-3.699-1.368-6.821-2.291-5.327M192 99.607c0 1.966.389 2.458 1.582 2 .87-.334 1.995-.607 2.5-.607s.918-.9.918-2c0-1.467-.667-2-2.5-2-2.027 0-2.5.493-2.5 2.607m-58.492 1.302c-3.654 1.613-3.824 1.85-2 2.801 1.096.572 4.63 1.359 7.853 1.75l5.861.712-2.861-3.586c-3.239-4.06-3.387-4.088-8.853-1.677m-81.429 3.674c.048 1.165.285 1.402.604.605.289-.722.253-1.585-.079-1.917s-.568.258-.525 1.312m143.936.667c.013 1.819.201 1.963.985.75 1.253-1.939 1.253-3 0-3-.55 0-.993 1.013-.985 2.25m-140.208.566c-.719.999-2.095 2.109-3.057 2.468-1.366.51-1.747 1.812-1.736 5.935.014 5.62.806 9.781 1.861 9.781.353 0 1.789-4.5 3.191-10 2.481-9.736 2.412-11.897-.259-8.184M60 104.393c0 .949 2.993 1.427 3.527.563.325-.526-.336-.956-1.468-.956s-2.059.177-2.059.393m57.25 1.296c.963.252 2.537.252 3.5 0 .963-.251.175-.457-1.75-.457s-2.713.206-1.75.457m11.893 14.315-.057 15.003 3.207-1.638c5.494-2.806 8.758-5.477 8.064-6.6-.396-.641-.198-.789.488-.364 1.882 1.162 1.319-1.366-1.042-4.681-1.208-1.697-1.721-2.791-1.141-2.433s3.924 4.716 7.428 9.681 6.715 9.028 7.135 9.028c1.19 0-.074-7.661-2.84-17.211-.272-.941-3.17-3.336-6.44-5.322S138 111.636 138 111.369c0-.52.484-.264 6.128 3.246 1.996 1.241 5.214 2.919 7.152 3.729l3.523 1.472-3.053-4.912c-1.679-2.701-3.585-5.352-4.236-5.893-.952-.79-15.134-4.01-17.664-4.011-.357 0-.676 6.752-.707 15.004m3.698-11.504c1.287 1.65 2.524 2.888 2.75 2.75.84-.513-.032-1.809-2.524-3.75l-2.567-2zm59.73.071c-.367 1.466-.475 2.858-.24 3.094.236.235.73-.771 1.098-2.236.367-1.466.475-2.858.24-3.094-.236-.235-.73.771-1.098 2.236M59.015 109.75c.011 2.001.258 2.366.908 1.341.49-.775.66-2.013.377-2.75-.811-2.115-1.301-1.577-1.285 1.409M132 111c1.175 1.65 2.361 3 2.636 3s-.461-1.35-1.636-3-2.361-3-2.636-3 .461 1.35 1.636 3m63.079-1.417c.048 1.165.285 1.402.604.605.289-.722.253-1.585-.079-1.917s-.568.258-.525 1.312M75.872 113.75c-1.243 1.586-1.208 1.621.378.378 1.666-1.307 2.195-2.128 1.372-2.128-.207 0-.995.787-1.75 1.75m100.889 4.345c-1.343 2.973-3.262 7.726-4.265 10.562-1.571 4.44-1.628 5.347-.41 6.52 2.272 2.189 10.239 7.823 11.062 7.823.414 0 .496-5.512.181-12.25-.431-9.228-1.01-12.967-2.35-15.155l-1.778-2.906zM195.5 116c-.375 1.183-.458 2.376-.183 2.651s.808-.468 1.183-1.651.458-2.376.183-2.651-.808.468-1.183 1.651m-60.5-.622c0 .207.787.995 1.75 1.75 1.586 1.243 1.621 1.208.378-.378-1.307-1.666-2.128-2.195-2.128-1.372M61.5 117c.34.55.816 1 1.059 1s.441-.45.441-1-.477-1-1.059-1-.781.45-.441 1m135.615 3c-.046 1.375.352 3.175.885 4 .862 1.333.96 1.333.885 0-.046-.825-.445-2.625-.885-4l-.801-2.5zm-45.722.5c1.742 7.38 4.013 14.633 4.717 15.068.457.283 2.226-.208 3.931-1.089 2.585-1.337 2.895-1.852 1.861-3.097-1.072-1.292-1.563-1.116-3.653 1.313l-2.414 2.805 2.211-3.336 2.212-3.335-2.879-2.802c-1.583-1.54-3.684-3.864-4.669-5.164-1.572-2.076-1.732-2.12-1.317-.363m14.577 3.03c-2.722 2.809-3.207 3.87-2.374 5.191.576.913 1.69 1.851 2.475 2.084s.549-.251-.526-1.077c-1.919-1.473-1.903-1.57.815-5.133 1.531-2.007 3.258-3.331 3.86-2.959.651.403.802.209.375-.481-.946-1.532-.728-1.645-4.625 2.375m-100.565-.28L63.5 125.5l2.25-1.905c1.237-1.048 2.25-2.06 2.25-2.25 0-.8-.805-.209-2.595 1.905m7.674-.667c.048 1.165.285 1.402.604.605.289-.722.253-1.585-.079-1.917s-.568.258-.525 1.312m122 0c.048 1.165.285 1.402.604.605.289-.722.253-1.585-.079-1.917s-.568.258-.525 1.312m-23.455 1.956c-.965 2.514-.681 3.163.498 1.136.584-1.004.851-2.036.593-2.293-.257-.258-.749.263-1.091 1.157M64.405 127.25 62.5 129.5l2.25-1.905c1.237-1.048 2.25-2.06 2.25-2.25 0-.8-.805-.209-2.595 1.905m7.753-.25c0 1.375.227 1.938.504 1.25.278-.687.278-1.812 0-2.5-.277-.687-.504-.125-.504 1.25M145 125.378c0 .207.787.995 1.75 1.75 1.586 1.243 1.621 1.208.378-.378-1.307-1.666-2.128-2.195-2.128-1.372m-36.551 7.343c-1.527 2.628-3.04 5.004-3.362 5.279-1.515 1.291-.819 3.749 3.137 11.086 2.352 4.361 4.788 7.735 5.413 7.496.702-.267.941.314.626 1.52-.492 1.881.034 1.943 14.29 1.675l14.801-.277 3.808-7c3.869-7.115 5.006-10.63 2.263-7-.831 1.1-1.679 1.775-1.885 1.5s-.748-.09-1.207.41c-.484.529-.309.609.417.191 1.72-.99 1.576-.161-.77 4.439-2.045 4.007-3.705 5.427-2.585 2.21.561-1.61.506-1.617-.684-.094-.987 1.263-1.733 1.411-3.14.624-1.336-.748-1.653-.722-1.149.094 1.052 1.701.302 1.426-6.326-2.32-3.353-1.895-6.096-3.258-6.096-3.028s-2.466-1.878-5.48-4.683-5.275-5.431-5.024-5.836c.25-.406 2.321-.987 4.601-1.293 6.564-.881 6.644-2.105.369-5.646-3.118-1.76-5.919-2.949-6.225-2.642s-1.11.097-1.787-.464c-.909-.754-1.954.226-4.005 3.759m28.254-.646c-6.669 3.456-7.546 4.911-5.529 9.17l1.454 3.071 2.151-2.31c1.184-1.27 1.911-2.698 1.617-3.174-.493-.798 8.096-.315 13.354.75 1.238.251 2.25-.002 2.25-.563s-1.463-1.064-3.25-1.119c-2.781-.085-2.916-.194-.933-.752l2.318-.652-2.353-3.491c-1.294-1.92-3.012-3.591-3.817-3.713s-4.073 1.131-7.262 2.783M70.71 132c-.287 1.1-.115 2 .384 2 .498 0 .906-.9.906-2s-.173-2-.383-2-.619.9-.907 2m26.26-.056c.573 1.07 1.535 2.25 2.139 2.623s.325-.501-.62-1.944c-2.002-3.055-3.038-3.518-1.519-.679m34.471-.389c-1.864 1.494-1.852 1.512.309.465 1.238-.6 2.25-1.3 2.25-1.555 0-.765-.519-.544-2.559 1.09m-71.925 1.42c-1.329 2.15-8.516 16.809-8.516 17.37 0 .326.694.326 1.543 0s1.331-.804 1.072-1.064c-.259-.259 1.521-3.382 3.957-6.939S62 135.254 62 134.496c0-1.79-1.682-2.819-2.484-1.521m99.19 3.642c-5.257 2.638-5.267 2.195.205 9.689 2.654 3.633 3.707 4.426 4.741 3.568.808-.67 1.105-2.136.757-3.738-.396-1.831-.28-2.223.382-1.285 1.452 2.061 2.146-4.557.841-8.016-1.247-3.303-.805-3.289-6.926-.218m8.373-1.034c.048 1.165.285 1.402.604.605.289-.722.253-1.585-.079-1.917s-.568.258-.525 1.312m-45.266.1c.721.289 1.584.253 1.916-.079s-.258-.568-1.312-.525c-1.165.048-1.402.285-.604.604m11 0c.721.289 1.584.253 1.916-.079s-.258-.568-1.312-.525c-1.165.048-1.402.285-.604.604m-17.544 1.01c.973.254 2.323.237 3-.037s-.119-.481-1.769-.461-2.204.244-1.231.498m10.372 2.516c-1.033 3.856-.713 7.487.769 8.716 1.116.926 1.723.723 2.913-.976 1.26-1.799 1.302-2.729.259-5.742-1.493-4.314-3.102-5.129-3.941-1.998m48.359.141c0 .231 1.18 1.193 2.623 2.139s2.318 1.224 1.944.62c-.713-1.154-4.567-3.483-4.567-2.759m-35.384 4.14c-2.687 1.858-5.387 3.949-6 4.646-.899 1.021-.793 1.024.545.017 1.779-1.339 3.484-.006 2.346 1.836-.349.564.047.736.923.4 1.198-.46 1.307-1.059.497-2.739-.956-1.981-.924-2.01.401-.368 1.214 1.503 1.843 1.597 4.024.603 1.422-.647 2.305-1.631 1.962-2.186s-.184-.737.352-.405 2.519-.339 4.405-1.49c3.141-1.916 3.261-2.158 1.429-2.878-3.6-1.414-5.928-.866-10.884 2.564m13.426-.546c-1.163.743-.098 2.286 5.25 7.607 6.576 6.544 9.625 10.618 3.693 4.935l-3.014-2.888-5.486 2.69c-3.017 1.48-5.485 2.478-5.485 2.218s2.298-1.637 5.107-3.06l5.108-2.589-2.282-2.428c-1.255-1.336-2.672-2.429-3.15-2.429-.839 0-7.008 12.108-6.452 12.665.152.151 4.242.343 9.089.425 11.969.204 12.647-1.027 5.373-9.744-1.811-2.171-3.968-4.934-4.793-6.14-1.082-1.583-1.906-1.934-2.958-1.262m25.233 1.663c1.557 1.847 1.593 2.257.294 3.336-.815.676-2.021.896-2.68.489-.738-.457-.936-.317-.516.363.376.608-.284 1.622-1.466 2.255-1.748.935-1.991.898-1.306-.2 1.471-2.356 1.418-4.11-.086-2.862-.729.605-1.198 1.867-1.042 2.806.156.938-.64 2.718-1.769 3.956s-1.723 2.25-1.319 2.25c1.288 0 16.775-12.173 16.208-12.74-.299-.3-1.239.031-2.088.736-1.276 1.059-1.928.954-3.774-.608-2.231-1.888-2.231-1.888-.456.219M70 146.107c0 .609-.675.848-1.5.531s-1.5-.139-1.5.393c0 .533.415.969.922.969s1.427 1.528 2.044 3.396c.616 1.867 3.569 5.712 6.563 8.543 5.933 5.611 6.713 5.659 11.36.69 2.287-2.445 2.318-2.663.727-5.092-.915-1.396-5.242-4.338-9.617-6.538-8.769-4.408-8.999-4.482-8.999-2.892m114.576 3.145c-1.588 7.747-1.681 9.932-.39 9.231.723-.393-.711 1.172-3.186 3.477-2.475 2.306-3.688 3.937-2.696 3.626.993-.311 4.593-1.026 8-1.589 9.033-1.493 12.843-2.486 16.112-4.199l2.908-1.524-4.412-2.492a1118 1118 0 0 0-10.143-5.635l-5.732-3.143zm-45.076 1.433c-2.2 1.373-3.1 2.197-2 1.832 1.1-.366 2.439-.744 2.976-.841s1.586-.743 2.331-1.435 1.837-.961 2.428-.596c.637.394.783.194.36-.49-.939-1.521-1.386-1.409-6.095 1.53m-9.5-1.255c0 .275.9.981 2 1.57s2 .845 2 .57-.9-.981-2-1.57-2-.845-2-.57m-3.333 4.237c-.367.366-.667 1.131-.667 1.7 0 .626.466.567 1.183-.15.651-.651.951-1.416.667-1.7s-.817-.217-1.183.15m12.903 3.446c.395.639-3.71.933-11.53.825-6.679-.092-12.421.109-12.759.447s5.761.615 13.552.615c10.885 0 14.167-.298 14.167-1.287 0-.708-.91-1.356-2.022-1.44s-1.745.295-1.408.84m-51.698 5.637c-1.243 1.586-1.208 1.621.378.378.963-.755 1.75-1.543 1.75-1.75 0-.823-.821-.294-2.128 1.372m8.73.022c1.156.951 3.522 4.263 5.256 7.361s3.714 6.075 4.398 6.616 4.394 1.29 8.244 1.666c6.578.642 6.879.585 5-.952-1.1-.899-.289-.645 1.803.565s3.964 2.036 4.162 1.836-2.549-4.526-6.106-9.614l-6.466-9.25-9.197.022c-8.859.022-9.119.086-7.094 1.75m39.135 7.062c-3.705 4.858-6.737 9.133-6.737 9.5 0 1.306 3.546.622 6.344-1.222 1.564-1.032 3.651-1.665 4.637-1.407s2.143-.096 2.57-.788c.547-.885.285-1.068-.887-.618-2.322.891-2.082-.005.35-1.307 1.548-.828 1.953-.778 1.75.215-.145.711.52 1.298 1.477 1.304.958.005 1.633.455 1.5 1-.132.544-2.394 1.042-5.026 1.107-6.745.167-7.217 1.382-.537 1.382 4.406 0 5.894-.436 7.417-2.172 1.048-1.194 1.284-1.807.525-1.361-.898.529-1.238.388-.975-.403.223-.668.717-1.068 1.099-.889 1.279.599 6.516-8.62 5.345-9.41-.739-.499-.749-.739-.03-.75.582-.008 1.932-.676 3-1.483 1.756-1.329 1.131-1.471-6.572-1.5l-8.513-.032zm-46.401-5.96-2.164 1.808 5.164 3.11c6.562 3.953 8.664 4.743 8.664 3.256 0-.641-.437-.896-.972-.565-.534.33-2.601-1.669-4.594-4.441-1.992-2.773-3.692-5.027-3.778-5.009-.086.019-1.13.847-2.32 1.841m67.751 2.323c-1.698 2.308-3.087 4.528-3.087 4.932s2.229-.764 4.954-2.598 5.504-3.517 6.177-3.741c1.965-.655-.027-2.79-2.604-2.79-1.608 0-3.332 1.33-5.44 4.197m-89.409-2.541c-.373.372-.678 1.502-.678 2.511 0 2.127 1.938 2.245 6.982.424l3.483-1.258-2.983-.714c-1.64-.393-3.69-.923-4.554-1.177-.865-.255-1.878-.159-2.25.214M59 164.43c0 .275.9.981 2 1.57s2 .845 2 .57-.9-.981-2-1.57-2-.845-2-.57m37 .356c0 .497.965 1.761 2.146 2.809 2.13 1.892 2.137 1.89.994-.289-1.275-2.431-3.14-3.928-3.14-2.52m-14 2.185c0 .754.787 2.26 1.75 3.346 1.695 1.912 1.681 1.938-.443.824-1.845-.968-2.585-.788-4.662 1.137l-2.468 2.287 6.123 3.968c9.368 6.069 10.172 5.588 5.6-3.352-4.111-8.038-5.9-10.528-5.9-8.21m85.5.029c-.349.565.47 1 1.882 1 1.375 0 2.778-.45 3.118-1 .349-.565-.47-1-1.882-1-1.375 0-2.778.45-3.118 1m6.434 1.579c-.849 1.024-.162 1.381 3.244 1.685l4.322.387-4.737.174c-4.365.161-4.936.49-7.263 4.175-1.389 2.2-2.742 4-3.006 4-1.249 0 .377-4.234 2.489-6.482l2.366-2.518h-3.751c-3.728 0-3.749.023-3.475 3.822.244 3.377-.214 4.265-3.923 7.617-2.31 2.086-4.2 3.452-4.2 3.033 0-.418 1.613-2.158 3.585-3.866 3.016-2.612 3.532-3.645 3.25-6.497l-.335-3.391-6 8.293c-8.062 11.143-8.351 11.74-4.136 8.525 2-1.525 3.636-2.486 3.636-2.134 0 .351 1.8-.28 4-1.402s4-2.557 4-3.187.288-.858.64-.506c1.011 1.011 6.226-2.492 5.71-3.836-.255-.665.441-1.445 1.545-1.733 1.105-.289 2.143-.132 2.307.349.332.975 8.798-3.775 8.798-4.937 0-.405-1.797-1.217-3.994-1.803-3.096-.826-4.237-.774-5.072.232m-86.922 1.444c1.261 2.355 1.655 2.479 1.655.52 0-.801-.611-1.691-1.357-1.977-1.064-.409-1.128-.095-.298 1.457m-12.14 1.727c-1.243 1.586-1.208 1.621.378.378.963-.755 1.75-1.543 1.75-1.75 0-.823-.821-.294-2.128 1.372m20.82 7.251C94.148 181.75 93.338 184 93.893 184c.554 0 1.401-.703 1.882-1.563.792-1.415 1-1.413 2.192.023 1.112 1.34 1.078 1.494-.224.995-2.056-.789-3.075 1.057-1.848 3.348.588 1.1 3.532 2.562 7.296 3.624 3.47.978 7.209 2.152 8.309 2.608 1.837.762 1.8.835-.453.897-2.37.066-2.319.205 1.5 4.116 2.174 2.227 3.841 4.364 3.703 4.75s.088.703.5.704c.412 0 2.153 1.001 3.868 2.223l3.117 2.223.658-4.724c.58-4.165.388-4.925-1.618-6.422-3.195-2.386-4.577-3.697-10.399-9.87-2.819-2.987-6.559-6.78-8.311-8.427l-3.186-2.996-2.058 2.496-2.058 2.495 1.618-2.715c1.8-3.018 1.976-3.785.869-3.784-.412.001-2.013 2.251-3.558 5m13.952 1.328C110.971 182.7 124.108 196 125.124 196c.482 0 .876-3.335.876-7.412v-7.412l-3.75-.561c-12.966-1.94-13.539-1.953-12.606-.286M129 186.246c0 1.58.43 2.606.956 2.281s.721-1.206.432-1.958c-.288-.752.026-1.707.698-2.122.855-.529.968-.334.377.648-.674 1.118-.552 1.169.595.251.793-.635 2.567-1.374 3.942-1.644s.363-.453-2.25-.408c-4.546.076-4.75.203-4.75 2.952m11.029-2.285c-.809.512-1.211 1.191-.893 1.509s1.148-.108 1.844-.946c1.443-1.738 1.166-1.902-.951-.563M133 186.059c0 .582.45.781 1 .441s1-.816 1-1.059-.45-.441-1-.441-1 .477-1 1.059m100.005.739c-.003.714-1.436 1.9-3.184 2.635l-3.18 1.337 4.93.439c2.711.241 4.98.405 5.042.365.063-.041-.722-1.424-1.744-3.074s-1.861-2.416-1.864-1.702m-211.604 1.005c-.576.383-1.357 1.535-1.735 2.558-.53 1.431-.32 1.72.904 1.25.877-.336 2.794-.625 4.262-.641 2.501-.029 2.543-.102.668-1.165-1.1-.624-2.237-1.486-2.526-1.917-.29-.43-.998-.469-1.573-.085m113.004 1.447-1.905 2.25 2.25-1.905c1.238-1.048 2.25-2.06 2.25-2.25 0-.8-.805-.209-2.595 1.905m7.916 4.446c-2.112.412-9.999 8.96-9.097 9.861.246.246 3.109-2.008 6.362-5.01s5.689-5.416 5.414-5.366-1.481.282-2.679.515m-10.475 2.93-4.653 1.378-.347 4.999c-.19 2.749-.121 4.967.154 4.928.756-.105 10.238-12.032 9.843-12.381-.189-.167-2.437.317-4.997 1.076m-24.846.771c0 .257 1.463 1.492 3.25 2.746 2.306 1.617 2.838 1.766 1.832.513-1.431-1.782-5.082-4.124-5.082-3.259m28 10.662c0 .582.45.781 1 .441s1-.816 1-1.059-.45-.441-1-.441-1 .477-1 1.059m-11.937 40.66c-.047 1.643-.517 2.076-1.813 1.668-1.667-.524-1.667-.482 0 .892.963.793 1.779 2.067 1.813 2.831.035.765.471.378.968-.86.539-1.341.539-3.159 0-4.5l-.904-2.25z"/></svg>